<svg width="91" height="26" viewBox="0 0 91 26" fill="none" xmlns="http://www.w3.org/2000/svg">
<path d="M6.72423 18.6762V10.0811H12.5777V7.44197H6.72423V3.01959H4.46266L4.1845 5.42099C3.9789 7.02589 3.48305 7.44197 1.81409 7.44197H0V10.0811H3.79749V18.8189C3.79749 22.8965 6.09534 25.2266 10.1105 25.2266H12.8317V22.4566H10.2557C7.84896 22.4566 6.73632 21.256 6.73632 18.6881L6.72423 18.6762Z" fill="#010101"/>
<path d="M20.6927 7.44196H17.7659V25.2147H20.6927V7.44196Z" fill="#010101"/>
<path d="M19.2294 0C17.8023 0 16.8589 0.962936 16.8589 2.25874C16.8589 3.55454 17.8023 4.48182 19.2294 4.48182C20.6564 4.48182 21.5635 3.51888 21.5635 2.25874C21.5635 0.998601 20.6564 0 19.2294 0Z" fill="#010101"/>
<path d="M48.8111 6.99023C45.8844 6.99023 43.514 8.2266 42.0869 10.4853C40.8654 8.19093 38.6401 6.99023 35.7496 6.99023C33.2462 6.99023 31.2144 7.91751 29.8599 9.66506L29.5817 7.44198H27.175V25.2147H30.1018V15.7637C30.1018 12.1021 32.194 9.73639 35.3264 9.73639C38.4587 9.73639 40.2728 11.9951 40.2728 15.5259V25.2147H43.1995V15.7637C43.1995 12.1021 45.2918 9.73639 48.4241 9.73639C51.5564 9.73639 53.3705 11.9951 53.3705 15.5259V25.2147H56.2972V15.0385C56.2972 10.0693 53.3705 6.99023 48.8111 6.99023Z" fill="#010101"/>
<path d="M70.036 6.99023C66.0933 6.99023 63.1424 9.08254 62.3321 12.5063H65.2951C65.8877 10.7588 67.7381 9.66506 70.0722 9.66506C73.1441 9.66506 75.0187 11.3413 75.0187 14.1231V14.7769H67.6293C63.8681 14.7769 61.3888 16.8693 61.3888 20.0909C61.3888 23.3126 64.0011 25.5 68.3549 25.5C71.2816 25.5 73.5795 24.5727 75.2243 22.7658L75.5387 25.2266H77.9454V13.921C77.9454 9.80772 74.7768 7.00212 70.036 7.00212V6.99023ZM68.4637 22.9203C65.924 22.9203 64.3155 21.7909 64.3155 20.0434C64.3155 18.2958 65.7063 17.2972 67.726 17.2972H75.0428C74.934 20.5902 72.225 22.9203 68.4517 22.9203H68.4637Z" fill="#010101"/>
<path d="M86.8465 0.309089C88.709 0.202096 90.2933 0.261536 90.6198 0.67762C90.6561 0.713284 90.7166 0.713284 90.7529 0.67762C90.7892 0.653844 90.8013 0.594403 90.7771 0.546851C90.2933 -0.0594425 87.6447 0.0118862 85.1897 0.23776C85.105 0.17832 84.9962 0.166431 84.851 0.154543C84.8269 0.154543 82.3476 0.0832147 80.7754 0.748949C80.7391 0.772725 80.7149 0.820278 80.727 0.855942C80.727 0.903494 80.7875 0.92727 80.8238 0.92727C81.8276 0.784613 83.4723 0.558739 85.1292 0.416082C85.1897 0.463634 85.2018 0.511187 85.2018 0.534963C85.3711 0.998599 84.585 2.15175 83.5207 3.44755C82.0936 4.74335 80.3884 6.36014 78.9129 8.1909C78.8887 8.22657 78.8887 8.27412 78.9371 8.30979C78.9371 8.33356 78.9613 8.33356 78.9855 8.33356C79.0097 8.33356 79.0218 8.33356 79.046 8.33356C79.6507 7.82237 81.9606 5.5993 83.6296 3.60209L84.4761 2.82937C85.9879 1.46224 86.774 0.737061 86.8344 0.320977L86.8465 0.309089ZM81.9243 0.606292C82.662 0.439858 83.436 0.380417 84.0045 0.356641C83.2063 0.42797 82.4806 0.534963 81.9243 0.606292ZM80.0135 7.18042C80.7754 6.33636 81.5736 5.52797 82.3355 4.80279C81.5373 5.68251 80.6907 6.51468 80.0135 7.18042ZM84.331 2.72237C85.0687 1.73566 85.5404 0.903494 85.3832 0.475522L85.359 0.404194C85.7944 0.368529 86.2298 0.332865 86.6651 0.320977C86.5684 0.701396 85.5525 1.62867 84.3673 2.67482L84.331 2.71049V2.72237Z" fill="#010101"/>
<path d="M84.8147 4.71959L84.7663 4.75526C84.7663 4.75526 84.73 4.83847 84.7663 4.88603C84.7905 4.9098 84.8026 4.9098 84.8389 4.9098C84.8631 4.9098 84.8752 4.9098 84.8993 4.88603L84.9477 4.85036C84.9477 4.85036 84.9961 4.76715 84.9477 4.71959C84.9235 4.69582 84.8631 4.67204 84.8147 4.71959Z" fill="#010101"/>
<path d="M90.644 5.39722C89.6886 5.69443 88.8662 5.86086 88.7574 5.87275H88.6727C88.6727 5.87275 88.7574 5.75387 88.9509 5.58743C89.0839 5.46855 89.229 5.31401 89.1565 5.20701C89.0718 5.07625 88.8058 5.13569 88.6002 5.20701C88.3462 5.29023 88.0438 5.43289 87.7778 5.57555C87.8987 5.43289 87.9834 5.30212 87.9592 5.19513C87.9592 5.13569 87.9108 5.08813 87.8382 5.06436C87.5964 4.98114 87.0763 5.23079 86.6289 5.48044L86.9191 5.20701C86.9191 5.20701 86.9554 5.1238 86.9191 5.07625C86.8949 5.05247 86.8345 5.05247 86.7982 5.07625L86.4353 5.43289C85.8307 5.65876 84.6092 5.89653 84.1859 5.89653C84.0528 5.89653 83.9924 5.87275 83.9803 5.8252C83.9561 5.80142 83.9803 5.70632 84.0891 5.6231L84.1375 5.57555C84.2101 5.51214 84.3028 5.43685 84.4157 5.34967L84.4761 5.30212C84.4761 5.30212 84.5124 5.23079 84.4761 5.18324C84.4519 5.14757 84.4036 5.13569 84.3552 5.15946L84.2947 5.20701C84.1133 5.33778 84.1133 5.34967 84.0045 5.44478L83.9561 5.49233C83.811 5.6231 83.7505 5.76576 83.7989 5.88464C83.8231 5.95597 83.9198 6.06296 84.1738 6.06296C84.5487 6.06296 85.4799 5.88464 86.1451 5.69443L85.879 5.95597C85.879 5.95597 85.8427 6.03918 85.879 6.07485C85.9032 6.09862 85.9153 6.09862 85.9516 6.09862C85.9758 6.09862 85.9879 6.09862 86 6.09862C86.5442 5.7182 87.5117 5.14757 87.7778 5.24268C87.802 5.3259 87.4875 5.67065 87.1247 5.95597C87.1005 5.97974 87.0884 6.03918 87.1247 6.07485C87.1489 6.11051 87.2094 6.1224 87.2577 6.09862C87.2819 6.09862 87.294 6.07485 87.3182 6.05107C87.5117 5.93219 88.2011 5.55177 88.6485 5.39722C88.8299 5.33778 88.9388 5.3259 88.9872 5.3259C88.963 5.34967 88.9267 5.40911 88.83 5.50422C88.5276 5.77764 88.4429 5.89653 88.4913 6.00352C88.5155 6.07485 88.6244 6.09862 88.6848 6.09862H88.7574C88.8904 6.07485 89.7128 5.9203 90.6924 5.61121C90.7408 5.61121 90.765 5.55177 90.7529 5.50422C90.7529 5.45667 90.6924 5.43289 90.644 5.44478V5.39722Z" fill="#010101"/>
</svg>
