<svg width="1200" height="630" viewBox="0 0 1200 630" fill="none" xmlns="http://www.w3.org/2000/svg">
  <rect width="1200" height="630" fill="#081625"/>
  <rect width="1200" height="630" fill="url(#paint0_linear)"/>
  <circle cx="1025" cy="108" r="208" fill="#52E6C8" fill-opacity="0.18"/>
  <circle cx="182" cy="560" r="260" fill="#52E6C8" fill-opacity="0.09"/>
  <rect x="96" y="88" width="80" height="80" rx="24" fill="url(#paint1_linear)"/>
  <path d="M115 117C115 107.059 123.059 99 133 99H158.534C168.475 99 176.534 107.059 176.534 117V142.534C176.534 152.475 168.475 160.534 158.534 160.534H142.5L134.775 167.524C132.852 169.264 129.798 167.899 129.798 165.305V160.534H133C123.059 160.534 115 152.475 115 142.534V117Z" fill="#081625"/>
  <text x="210" y="143" fill="white" font-family="Arial, Helvetica, sans-serif" font-size="52" font-weight="700">Proactive</text>
  <text x="96" y="278" fill="white" font-family="Arial, Helvetica, sans-serif" font-size="86" font-weight="700">Strategic Marketing</text>
  <text x="96" y="368" fill="#52E6C8" font-family="Arial, Helvetica, sans-serif" font-size="86" font-weight="700">for Business Growth</text>
  <text x="96" y="454" fill="white" fill-opacity="0.82" font-family="Arial, Helvetica, sans-serif" font-size="34" font-weight="400">
    Brand platforms, product strategy, communication systems, and long-term marketing architecture.
  </text>
  <text x="96" y="544" fill="white" fill-opacity="0.56" font-family="Arial, Helvetica, sans-serif" font-size="26" font-weight="500">
    proactive.agency.uz
  </text>
  <defs>
    <linearGradient id="paint0_linear" x1="0" y1="0" x2="1096" y2="630" gradientUnits="userSpaceOnUse">
      <stop stop-color="#2C3171"/>
      <stop offset="0.36" stop-color="#0B2940"/>
      <stop offset="1" stop-color="#114F64"/>
    </linearGradient>
    <linearGradient id="paint1_linear" x1="96" y1="88" x2="176" y2="168" gradientUnits="userSpaceOnUse">
      <stop stop-color="#52E6C8"/>
      <stop offset="1" stop-color="#21D3E6"/>
    </linearGradient>
  </defs>
</svg>
